<svg width="140" height="29" viewBox="0 0 140 29" fill="none" xmlns="http://www.w3.org/2000/svg">
<g clip-path="url(#clip0_739_785)">
<path d="M9.0536 7.8418L7.89062 12.1223L14.5473 7.81743L10.1937 24.0607L14.6152 24.0644L21.0466 0.0723877" fill="#3395FF"/>
<path d="M1.88982 17.2357L0.0585938 24.0644H9.12094L12.8292 10.173L1.88982 17.2357ZM33.3691 11.2237C33.1476 12.047 32.7208 12.6518 32.0843 13.038C31.4493 13.4234 30.5581 13.6169 29.4076 13.6169H25.7526L27.0359 8.83204H30.691C31.8399 8.83204 32.6293 9.02403 33.0575 9.41538C33.4858 9.80673 33.5892 10.4048 33.3691 11.2318V11.2237ZM37.1534 11.1285C37.6186 9.40061 37.4266 8.07149 36.576 7.14111C35.7268 6.21812 34.2368 5.75293 32.1102 5.75293H23.9531L19.0428 24.0725H23.0057L24.9846 16.6886H27.5838C28.1671 16.6886 28.6264 16.7846 28.9617 16.9692C29.2976 17.1612 29.4948 17.4934 29.5553 17.9734L30.2627 24.0725H34.5085L33.8203 18.3869C33.68 17.1169 33.0989 16.3711 32.0777 16.1496C33.3795 15.773 34.4701 15.1453 35.3488 14.274C36.2214 13.4091 36.8447 12.325 37.1534 11.1358V11.1285ZM46.7865 17.5156C46.4543 18.7561 45.9448 19.6939 45.2559 20.351C44.5662 21.0082 43.7421 21.3331 42.7807 21.3331C41.8016 21.3331 41.1378 21.0156 40.7871 20.3732C40.4356 19.7308 40.4238 18.8004 40.7502 17.582C41.0765 16.3637 41.5971 15.4112 42.3133 14.7244C43.0296 14.0377 43.8669 13.6944 44.8283 13.6944C45.7882 13.6944 46.4454 14.0267 46.7777 14.6861C47.1174 15.3484 47.1247 16.2958 46.7925 17.5289L46.7865 17.5156ZM48.5233 11.0325L48.0271 12.8858C47.8129 12.2213 47.3972 11.6896 46.7829 11.2909C46.167 10.8996 45.405 10.7002 44.496 10.7002C43.3811 10.7002 42.3104 10.9882 41.284 11.5641C40.2576 12.1401 39.3568 12.9523 38.5889 14.0008C37.8209 15.0493 37.2598 16.2382 36.8979 17.5747C36.5435 18.9185 36.4697 20.0926 36.6838 21.1116C36.9053 22.1379 37.3705 22.9206 38.0868 23.4671C38.8104 24.0209 39.7334 24.2941 40.8631 24.2941C41.7609 24.2986 42.6485 24.1045 43.4623 23.7255C44.2669 23.3626 44.9826 22.8283 45.5593 22.1601L45.0425 24.0917H48.8747L52.374 11.0391H48.5343L48.5233 11.0325ZM66.1451 11.0325H55.0005L54.2215 13.9417H60.7061L52.1333 21.3479L51.4008 24.0799H62.905L63.684 21.1706H56.7357L65.4399 13.6538L66.1451 11.0325ZM75.9547 17.4934C75.6099 18.7782 75.0982 19.7441 74.4225 20.3732C73.7469 21.0082 72.9287 21.3257 71.9681 21.3257C69.9596 21.3257 69.2995 20.0483 69.9848 17.4934C70.3244 16.2234 70.8383 15.2686 71.5251 14.6255C72.2118 13.9801 73.0439 13.6582 74.0223 13.6582C74.9822 13.6582 75.6305 13.9779 75.9643 14.6218C76.298 15.2642 76.2951 16.2219 75.9547 17.492V17.4934ZM78.1979 11.5235C77.3156 10.9741 76.1895 10.6994 74.8161 10.6994C73.4257 10.6994 72.1387 10.9727 70.9543 11.5191C69.7748 12.0621 68.7382 12.8726 67.9268 13.8864C67.0925 14.9127 66.4921 16.1163 66.1237 17.4897C65.7619 18.858 65.7176 20.0594 65.9982 21.0879C66.2787 22.1143 66.8695 22.9044 67.7555 23.4508C68.649 24.0017 69.7861 24.2756 71.1817 24.2756C72.5551 24.2756 73.8325 23.9994 75.0066 23.4501C76.1806 22.8978 77.1849 22.1136 78.0192 21.0798C78.8536 20.0505 79.4517 18.8499 79.8209 17.4765C80.1901 16.103 80.2344 14.9039 79.9538 13.8731C79.6733 12.8467 79.0899 12.0566 78.2112 11.5065L78.1979 11.5235ZM91.879 14.5192L92.861 10.9675C92.5287 10.7977 92.0931 10.709 91.5467 10.709C90.668 10.709 89.8262 10.9261 89.014 11.3662C88.3154 11.7398 87.7218 12.2671 87.2197 12.9272L87.7292 11.0147L86.6164 11.0192H83.8843L80.3622 24.0666H84.2484L86.0759 17.2461C86.3417 16.2544 86.8202 15.4739 87.5106 14.9201C88.1973 14.3641 89.0538 14.0857 90.0876 14.0857C90.7226 14.0857 91.3133 14.2312 91.8745 14.5214L91.879 14.5192ZM102.692 17.5562C102.36 18.7746 101.858 19.7049 101.171 20.3473C100.484 20.9927 99.6572 21.3146 98.6973 21.3146C97.7374 21.3146 97.0802 20.9897 96.7332 20.34C96.3787 19.6865 96.3714 18.745 96.7036 17.5075C97.0359 16.2707 97.5454 15.3218 98.2469 14.6646C98.9484 14.0023 99.7754 13.6715 100.735 13.6715C101.68 13.6715 102.315 14.0112 102.655 14.6979C102.995 15.3846 103.002 16.3371 102.676 17.5555L102.692 17.5562ZM105.393 11.5449C104.673 10.969 103.754 10.681 102.639 10.681C101.662 10.681 100.731 10.9025 99.8477 11.35C98.9653 11.7967 98.2491 12.4059 97.699 13.1768L97.7123 13.0882L98.3643 11.0133H94.5689L93.6016 14.624L93.5721 14.7496L89.5848 29.6238H93.4761L95.4845 22.1365C95.6839 22.8025 96.09 23.3253 96.7103 23.7034C97.3305 24.0799 98.0962 24.2667 99.0067 24.2667C100.136 24.2667 101.214 23.9935 102.237 23.4471C103.264 22.8992 104.15 22.1106 104.903 21.0916C105.656 20.0727 106.215 18.8912 106.572 17.5547C106.933 16.216 107.007 15.022 106.8 13.9772C106.59 12.9309 106.124 12.1209 105.405 11.5479L105.393 11.5449ZM118.301 17.503C117.969 18.7362 117.459 19.6813 116.773 20.3311C116.086 20.9853 115.259 21.3109 114.299 21.3109C113.317 21.3109 112.652 20.9934 112.305 20.351C111.951 19.7086 111.943 18.7782 112.268 17.5599C112.593 16.3415 113.112 15.389 113.828 14.7023C114.544 14.0156 115.382 13.673 116.344 13.673C117.303 13.673 117.953 14.0053 118.293 14.6624C118.633 15.3218 118.635 16.2692 118.304 17.5052L118.301 17.503ZM120.036 11.0162L119.539 12.8696C119.325 12.2013 118.912 11.6697 118.299 11.2747C117.679 10.8804 116.918 10.6839 116.01 10.6839C114.895 10.6839 113.818 10.9719 112.79 11.5479C111.764 12.1238 110.863 12.9316 110.095 13.9772C109.327 15.0228 108.766 16.2145 108.404 17.551C108.046 18.8927 107.976 20.069 108.19 21.0924C108.406 22.1114 108.872 22.8985 109.593 23.4479C110.312 23.9943 111.24 24.2704 112.369 24.2704C113.278 24.2704 114.145 24.0814 114.969 23.7019C115.771 23.3373 116.485 22.8024 117.06 22.1343L116.544 24.0674H120.376L123.874 11.0199H120.042L120.036 11.0162ZM139.963 11.0207L139.966 11.017H137.61C137.535 11.017 137.468 11.0207 137.4 11.0221H136.178L135.55 11.8934L135.395 12.1002L135.328 12.2036L130.363 19.1209L129.336 11.0207H125.269L127.329 23.3297L122.781 29.6282H126.835L127.935 28.068C127.966 28.0222 127.994 27.9838 128.031 27.9351L129.316 26.1113L129.353 26.0596L135.107 17.9003L139.958 11.0332L139.966 11.0288H139.963V11.0207Z" fill="#FCFCFD"/>
</g>
<defs>
<clipPath id="clip0_739_785">
<rect width="140" height="29" fill="white"/>
</clipPath>
</defs>
</svg>
