<svg width="701" height="246" viewBox="0 0 701 246" fill="none" xmlns="http://www.w3.org/2000/svg">
<path d="M194.426 59.6666L108.408 9.70193C103.798 7.0218 98.1056 7.0218 93.4817 9.70193L7.46359 59.6817C2.85357 62.3616 0 67.3242 0 72.6846V172.629C0 177.989 2.83906 182.952 7.46359 185.632L7.97589 185.927L66.5844 148.258L50.56 210.666L60.1599 216.247L83.6478 124.785L30.7604 158.787L39.2189 122.414L137.251 59.3873L92.194 234.861L93.4817 235.612C98.0911 238.292 103.784 238.292 108.408 235.612L194.426 185.632C199.036 182.952 201.889 177.989 201.889 172.629V72.6701C201.889 67.3097 199.05 62.3471 194.426 59.6666Z" fill="#305EFF"/>
<path d="M301.655 154.533C297.465 154.533 293.378 153.971 289.392 152.847C285.509 151.62 281.983 150.036 278.815 148.095C275.75 146.153 273.144 144.007 270.998 141.657C268.954 139.204 267.677 136.905 267.166 134.759L272.837 133.379L272.224 152.693H253.983V39.5678H272.991V90.9189L268.392 89.9992C269.005 87.6488 270.282 85.3495 272.224 83.1012C274.166 80.853 276.669 78.8092 279.735 76.9698C282.801 75.0281 286.224 73.4953 290.005 72.3712C293.786 71.1449 297.721 70.5317 301.808 70.5317C309.677 70.5317 316.728 72.3201 322.962 75.8968C329.196 79.4735 334.152 84.4297 337.831 90.7656C341.51 97.1014 343.349 104.306 343.349 112.379C343.349 120.554 341.51 127.81 337.831 134.146C334.254 140.482 329.349 145.489 323.115 149.168C316.882 152.745 309.728 154.533 301.655 154.533ZM298.283 137.825C303.597 137.825 308.246 136.752 312.232 134.606C316.217 132.357 319.334 129.343 321.582 125.562C323.831 121.678 324.955 117.284 324.955 112.379C324.955 107.474 323.831 103.131 321.582 99.3496C319.334 95.5686 316.217 92.605 312.232 90.459C308.246 88.313 303.597 87.24 298.283 87.24C293.071 87.24 288.421 88.313 284.334 90.459C280.348 92.605 277.231 95.5686 274.983 99.3496C272.735 103.131 271.611 107.474 271.611 112.379C271.611 117.284 272.735 121.678 274.983 125.562C277.231 129.343 280.348 132.357 284.334 134.606C288.421 136.752 293.071 137.825 298.283 137.825ZM358.851 153V39.5678H377.859V153H358.851ZM431.837 154.533C423.969 154.533 416.969 152.745 410.837 149.168C404.808 145.489 400.005 140.482 396.428 134.146C392.954 127.81 391.217 120.554 391.217 112.379C391.217 104.306 393.005 97.1014 396.582 90.7656C400.158 84.4297 405.063 79.4735 411.297 75.8968C417.633 72.3201 424.837 70.5317 432.911 70.5317C437.713 70.5317 442.108 71.1449 446.093 72.3712C450.181 73.5975 453.706 75.3347 456.67 77.5829C459.736 79.7289 462.188 82.1304 464.028 84.7874C465.867 87.3422 466.991 90.0502 467.4 92.9116L462.955 92.4517V72.2179H481.809V153H462.801V132.46L466.94 132.613C466.429 135.168 465.152 137.774 463.108 140.43C461.166 142.985 458.56 145.336 455.29 147.482C452.122 149.526 448.546 151.212 444.56 152.54C440.575 153.869 436.334 154.533 431.837 154.533ZM436.896 137.825C442.108 137.825 446.706 136.752 450.692 134.606C454.779 132.46 457.947 129.496 460.196 125.715C462.444 121.832 463.568 117.386 463.568 112.379C463.568 107.576 462.444 103.284 460.196 99.5029C457.947 95.7219 454.779 92.7583 450.692 90.6123C446.706 88.3641 442.108 87.24 436.896 87.24C431.582 87.24 426.932 88.3641 422.947 90.6123C418.961 92.7583 415.845 95.7219 413.596 99.5029C411.45 103.284 410.377 107.576 410.377 112.379C410.377 117.386 411.45 121.832 413.596 125.715C415.845 129.496 418.961 132.46 422.947 134.606C426.932 136.752 431.582 137.825 436.896 137.825ZM537.333 154.533C529.26 154.533 522.107 152.745 515.873 149.168C509.64 145.489 504.735 140.533 501.158 134.299C497.683 127.963 495.946 120.708 495.946 112.532C495.946 104.459 497.734 97.2547 501.311 90.9189C504.888 84.583 509.844 79.6268 516.18 76.0501C522.516 72.3712 529.72 70.5317 537.793 70.5317C542.494 70.5317 546.888 71.196 550.976 72.5245C555.166 73.7508 558.845 75.4369 562.013 77.5829C565.283 79.6267 567.838 81.926 569.677 84.4808C571.516 87.0356 572.538 89.6415 572.743 92.2985L567.684 92.9116V39.5678H586.539V153H568.297L567.838 132.766L571.516 133.533C571.414 136.087 570.392 138.591 568.451 141.044C566.509 143.394 563.954 145.591 560.786 147.635C557.721 149.679 554.144 151.365 550.056 152.693C545.969 153.92 541.728 154.533 537.333 154.533ZM541.626 138.284C546.837 138.284 551.436 137.16 555.421 134.912C559.509 132.664 562.677 129.649 564.925 125.868C567.173 121.985 568.297 117.54 568.297 112.532C568.297 107.627 567.173 103.233 564.925 99.3496C562.677 95.4664 559.509 92.4517 555.421 90.3057C551.436 88.1597 546.837 87.0867 541.626 87.0867C536.414 87.0867 531.764 88.1597 527.676 90.3057C523.691 92.4517 520.574 95.4664 518.326 99.3496C516.078 103.233 514.954 107.627 514.954 112.532C514.954 117.54 516.078 121.985 518.326 125.868C520.574 129.649 523.691 132.664 527.676 134.912C531.764 137.16 536.414 138.284 541.626 138.284ZM647.154 154.533C637.752 154.533 629.424 152.745 622.168 149.168C614.913 145.591 609.241 140.737 605.153 134.606C601.168 128.372 599.175 121.27 599.175 113.299C599.175 106.759 600.35 100.883 602.701 95.6708C605.051 90.459 608.27 85.9626 612.358 82.1815C616.548 78.4005 621.453 75.488 627.073 73.4442C632.694 71.4004 638.774 70.3784 645.314 70.3784C651.242 70.3784 656.76 71.4004 661.869 73.4442C667.081 75.3858 671.578 78.145 675.359 81.7217C679.242 85.1962 682.205 89.386 684.249 94.2912C686.395 99.0942 687.417 104.408 687.315 110.233L687.162 117.437H613.124L609.599 104.255H671.373L668.921 106.554V103.182C668.512 100.014 667.183 97.2547 664.935 94.9043C662.687 92.4517 659.826 90.5101 656.351 89.0794C652.979 87.6488 649.3 86.9334 645.314 86.9334C639.694 86.9334 634.789 87.8531 630.599 89.6926C626.409 91.4298 623.139 94.1379 620.789 97.8168C618.54 101.496 617.416 106.196 617.416 111.919C617.416 117.131 618.745 121.678 621.402 125.562C624.161 129.343 627.942 132.306 632.745 134.452C637.65 136.598 643.322 137.671 649.76 137.671C655.278 137.671 660.03 136.956 664.015 135.525C668.001 133.992 671.68 131.949 675.052 129.394L683.943 142.423C680.979 144.774 677.505 146.869 673.519 148.708C669.534 150.547 665.293 151.978 660.796 153C656.3 154.022 651.752 154.533 647.154 154.533Z" fill="#305EFF"/>
<path d="M259.731 232.847C256.848 232.847 254.304 232.225 252.098 230.979C249.892 229.698 248.166 227.972 246.92 225.802C245.675 223.596 245.052 221.087 245.052 218.276C245.052 215.464 245.675 212.974 246.92 210.803C248.201 208.597 249.945 206.871 252.151 205.625C254.393 204.344 256.937 203.704 259.784 203.704C261.457 203.704 263.022 203.935 264.481 204.398C265.976 204.86 267.292 205.483 268.431 206.266C269.605 207.013 270.513 207.849 271.153 208.775C271.794 209.664 272.114 210.554 272.114 211.443L270.513 211.55V192.815H276.011V232.314H270.513V225.215L271.58 225.375C271.58 226.229 271.242 227.083 270.566 227.937C269.926 228.791 269.054 229.592 267.951 230.339C266.848 231.086 265.584 231.691 264.161 232.154C262.738 232.616 261.261 232.847 259.731 232.847ZM260.691 227.99C262.649 227.99 264.374 227.563 265.869 226.709C267.399 225.855 268.591 224.699 269.445 223.24C270.299 221.781 270.726 220.126 270.726 218.276C270.726 216.425 270.299 214.771 269.445 213.312C268.591 211.853 267.399 210.714 265.869 209.896C264.374 209.042 262.649 208.614 260.691 208.614C258.734 208.614 256.991 209.042 255.461 209.896C253.966 210.714 252.792 211.853 251.938 213.312C251.084 214.771 250.657 216.425 250.657 218.276C250.657 220.126 251.084 221.781 251.938 223.24C252.792 224.699 253.966 225.855 255.461 226.709C256.991 227.563 258.734 227.99 260.691 227.99ZM301.344 232.847C298.142 232.847 295.295 232.243 292.804 231.033C290.313 229.787 288.356 228.097 286.933 225.962C285.545 223.827 284.851 221.372 284.851 218.596C284.851 216.319 285.26 214.272 286.079 212.458C286.897 210.643 288.018 209.077 289.441 207.76C290.9 206.444 292.608 205.43 294.566 204.718C296.523 204.006 298.622 203.65 300.864 203.65C302.892 203.65 304.778 203.989 306.522 204.665C308.301 205.341 309.849 206.284 311.166 207.494C312.482 208.703 313.497 210.145 314.208 211.817C314.955 213.454 315.311 215.269 315.276 217.262L315.222 219.824H289.335L288.107 215.447H310.472L309.671 216.141V214.86C309.529 213.685 309.031 212.636 308.177 211.71C307.323 210.785 306.255 210.056 304.974 209.522C303.693 208.988 302.323 208.721 300.864 208.721C298.729 208.721 296.861 209.059 295.259 209.735C293.694 210.412 292.466 211.461 291.577 212.885C290.722 214.272 290.295 216.052 290.295 218.222C290.295 220.179 290.794 221.87 291.79 223.293C292.786 224.716 294.174 225.82 295.953 226.602C297.733 227.385 299.779 227.777 302.092 227.777C304.084 227.777 305.81 227.492 307.269 226.923C308.728 226.353 310.116 225.57 311.433 224.574L314.048 228.577C313.123 229.36 311.966 230.09 310.579 230.766C309.191 231.406 307.696 231.922 306.095 232.314C304.529 232.67 302.946 232.847 301.344 232.847ZM335.379 232.847C332.675 232.847 330.202 232.438 327.96 231.62C325.754 230.801 323.903 229.52 322.409 227.777L326.145 224.467C327.355 225.748 328.725 226.709 330.255 227.35C331.821 227.99 333.547 228.31 335.432 228.31C336.18 228.31 336.927 228.239 337.674 228.097C338.422 227.955 339.098 227.741 339.703 227.456C340.308 227.172 340.788 226.798 341.144 226.336C341.5 225.873 341.678 225.339 341.678 224.734C341.678 223.702 341.073 222.902 339.863 222.332C339.222 222.083 338.439 221.816 337.514 221.532C336.589 221.247 335.504 220.98 334.258 220.731C332.159 220.268 330.344 219.752 328.814 219.183C327.284 218.578 326.056 217.849 325.131 216.995C324.455 216.319 323.939 215.553 323.583 214.699C323.263 213.845 323.102 212.867 323.102 211.764C323.102 210.589 323.387 209.504 323.957 208.508C324.561 207.511 325.398 206.657 326.465 205.946C327.533 205.234 328.778 204.682 330.202 204.291C331.625 203.9 333.155 203.704 334.792 203.704C336.251 203.704 337.728 203.882 339.222 204.238C340.752 204.558 342.176 205.056 343.492 205.732C344.845 206.373 345.965 207.191 346.855 208.187L343.813 211.764C342.994 211.088 342.069 210.483 341.037 209.949C340.041 209.415 339.009 209.006 337.941 208.721C336.874 208.401 335.877 208.241 334.952 208.241C334.169 208.241 333.386 208.312 332.604 208.454C331.821 208.561 331.127 208.757 330.522 209.042C329.952 209.291 329.49 209.629 329.134 210.056C328.778 210.483 328.6 210.999 328.6 211.604C328.6 212.066 328.707 212.493 328.921 212.885C329.17 213.24 329.49 213.561 329.881 213.845C330.486 214.237 331.305 214.593 332.337 214.913C333.369 215.233 334.596 215.536 336.02 215.82C337.87 216.212 339.507 216.674 340.93 217.208C342.389 217.706 343.599 218.329 344.56 219.076C345.378 219.681 345.983 220.411 346.375 221.265C346.802 222.119 347.015 223.097 347.015 224.2C347.015 225.944 346.481 227.474 345.414 228.791C344.382 230.072 342.994 231.068 341.251 231.78C339.507 232.492 337.55 232.847 335.379 232.847ZM357.394 232.314V204.291H362.892V232.314H357.394ZM360.063 197.886C358.889 197.886 357.981 197.583 357.341 196.978C356.7 196.373 356.38 195.519 356.38 194.416C356.38 193.384 356.7 192.548 357.341 191.908C358.017 191.267 358.924 190.947 360.063 190.947C361.237 190.947 362.145 191.249 362.785 191.854C363.426 192.459 363.746 193.313 363.746 194.416C363.746 195.448 363.408 196.284 362.732 196.925C362.091 197.566 361.202 197.886 360.063 197.886ZM389.678 244.59C387.187 244.59 384.892 244.27 382.793 243.63C380.693 242.989 379.003 242.188 377.722 241.228L379.697 236.851C380.444 237.313 381.334 237.758 382.366 238.185C383.398 238.612 384.536 238.968 385.782 239.253C387.027 239.537 388.326 239.68 389.678 239.68C391.671 239.68 393.379 239.324 394.802 238.612C396.226 237.9 397.329 236.851 398.112 235.463C398.895 234.075 399.286 232.385 399.286 230.392V225.855L399.873 226.229C399.66 227.296 398.966 228.346 397.791 229.378C396.653 230.374 395.212 231.211 393.468 231.887C391.76 232.527 389.963 232.847 388.077 232.847C385.195 232.847 382.632 232.225 380.391 230.979C378.184 229.698 376.441 227.972 375.16 225.802C373.879 223.596 373.238 221.087 373.238 218.276C373.238 215.464 373.879 212.974 375.16 210.803C376.476 208.597 378.273 206.871 380.551 205.625C382.828 204.344 385.426 203.704 388.344 203.704C389.305 203.704 390.319 203.828 391.386 204.077C392.489 204.327 393.557 204.682 394.589 205.145C395.621 205.572 396.564 206.07 397.418 206.64C398.272 207.209 398.966 207.832 399.499 208.508C400.069 209.148 400.389 209.789 400.46 210.429L399.286 210.856V204.291H404.784V229.752C404.784 232.207 404.392 234.342 403.609 236.157C402.862 238.007 401.812 239.555 400.46 240.801C399.108 242.046 397.507 242.989 395.656 243.63C393.806 244.27 391.813 244.59 389.678 244.59ZM389.305 227.777C391.297 227.777 393.059 227.367 394.589 226.549C396.155 225.731 397.364 224.61 398.218 223.186C399.072 221.763 399.499 220.126 399.499 218.276C399.499 216.425 399.055 214.788 398.165 213.365C397.311 211.906 396.119 210.767 394.589 209.949C393.059 209.13 391.297 208.721 389.305 208.721C387.276 208.721 385.479 209.148 383.913 210.002C382.348 210.821 381.102 211.959 380.177 213.418C379.288 214.842 378.843 216.461 378.843 218.276C378.843 220.09 379.288 221.727 380.177 223.186C381.102 224.61 382.348 225.731 383.913 226.549C385.479 227.367 387.276 227.777 389.305 227.777ZM417.276 232.314V204.291H422.774V210.91L421.386 211.337C421.92 210.056 422.756 208.846 423.895 207.707C425.033 206.533 426.386 205.572 427.951 204.825C429.553 204.077 431.243 203.704 433.022 203.704C435.477 203.704 437.524 204.184 439.16 205.145C440.833 206.07 442.078 207.405 442.897 209.148C443.715 210.892 444.124 212.991 444.124 215.447V232.314H438.627V216.034C438.627 214.433 438.324 213.098 437.719 212.031C437.15 210.927 436.314 210.109 435.211 209.575C434.143 209.006 432.88 208.739 431.421 208.775C430.175 208.775 429.019 208.988 427.951 209.415C426.919 209.842 426.012 210.412 425.229 211.123C424.446 211.835 423.841 212.636 423.414 213.525C422.987 214.379 422.774 215.269 422.774 216.194V232.314H420.052C419.411 232.314 418.859 232.314 418.397 232.314C417.934 232.314 417.561 232.314 417.276 232.314ZM485.011 232.847C482.306 232.847 479.833 232.438 477.592 231.62C475.385 230.801 473.535 229.52 472.04 227.777L475.777 224.467C476.987 225.748 478.357 226.709 479.887 227.35C481.452 227.99 483.178 228.31 485.064 228.31C485.812 228.31 486.559 228.239 487.306 228.097C488.053 227.955 488.729 227.741 489.334 227.456C489.939 227.172 490.42 226.798 490.776 226.336C491.131 225.873 491.309 225.339 491.309 224.734C491.309 223.702 490.704 222.902 489.495 222.332C488.854 222.083 488.071 221.816 487.146 221.532C486.221 221.247 485.135 220.98 483.89 220.731C481.791 220.268 479.976 219.752 478.446 219.183C476.915 218.578 475.688 217.849 474.763 216.995C474.086 216.319 473.571 215.553 473.215 214.699C472.894 213.845 472.734 212.867 472.734 211.764C472.734 210.589 473.019 209.504 473.588 208.508C474.193 207.511 475.029 206.657 476.097 205.946C477.165 205.234 478.41 204.682 479.833 204.291C481.257 203.9 482.787 203.704 484.424 203.704C485.883 203.704 487.359 203.882 488.854 204.238C490.384 204.558 491.808 205.056 493.124 205.732C494.476 206.373 495.597 207.191 496.487 208.187L493.444 211.764C492.626 211.088 491.701 210.483 490.669 209.949C489.672 209.415 488.641 209.006 487.573 208.721C486.505 208.401 485.509 208.241 484.584 208.241C483.801 208.241 483.018 208.312 482.235 208.454C481.452 208.561 480.759 208.757 480.154 209.042C479.584 209.291 479.122 209.629 478.766 210.056C478.41 210.483 478.232 210.999 478.232 211.604C478.232 212.066 478.339 212.493 478.552 212.885C478.801 213.24 479.122 213.561 479.513 213.845C480.118 214.237 480.936 214.593 481.968 214.913C483 215.233 484.228 215.536 485.651 215.82C487.502 216.212 489.139 216.674 490.562 217.208C492.021 217.706 493.231 218.329 494.192 219.076C495.01 219.681 495.615 220.411 496.006 221.265C496.434 222.119 496.647 223.097 496.647 224.2C496.647 225.944 496.113 227.474 495.046 228.791C494.014 230.072 492.626 231.068 490.882 231.78C489.139 232.492 487.182 232.847 485.011 232.847ZM511.082 244.59L517.488 231.513L517.541 235.837L502.008 204.291H508.414L517.007 222.759C517.648 223.969 518.217 225.161 518.715 226.336C519.214 227.474 519.569 228.542 519.783 229.538L518.662 229.752C519.053 228.755 519.498 227.652 519.996 226.442C520.495 225.232 521.046 223.934 521.651 222.546L529.284 204.291H535.742L522.505 232.42L516.954 244.59H511.082ZM553.454 232.847C550.75 232.847 548.276 232.438 546.035 231.62C543.828 230.801 541.978 229.52 540.483 227.777L544.22 224.467C545.43 225.748 546.8 226.709 548.33 227.35C549.895 227.99 551.621 228.31 553.507 228.31C554.255 228.31 555.002 228.239 555.749 228.097C556.496 227.955 557.172 227.741 557.777 227.456C558.382 227.172 558.863 226.798 559.219 226.336C559.574 225.873 559.752 225.339 559.752 224.734C559.752 223.702 559.147 222.902 557.938 222.332C557.297 222.083 556.514 221.816 555.589 221.532C554.664 221.247 553.578 220.98 552.333 220.731C550.234 220.268 548.419 219.752 546.889 219.183C545.358 218.578 544.131 217.849 543.206 216.995C542.53 216.319 542.014 215.553 541.658 214.699C541.337 213.845 541.177 212.867 541.177 211.764C541.177 210.589 541.462 209.504 542.031 208.508C542.636 207.511 543.472 206.657 544.54 205.946C545.608 205.234 546.853 204.682 548.276 204.291C549.7 203.9 551.23 203.704 552.867 203.704C554.326 203.704 555.803 203.882 557.297 204.238C558.827 204.558 560.251 205.056 561.567 205.732C562.919 206.373 564.04 207.191 564.93 208.187L561.887 211.764C561.069 211.088 560.144 210.483 559.112 209.949C558.115 209.415 557.084 209.006 556.016 208.721C554.948 208.401 553.952 208.241 553.027 208.241C552.244 208.241 551.461 208.312 550.678 208.454C549.895 208.561 549.202 208.757 548.597 209.042C548.027 209.291 547.565 209.629 547.209 210.056C546.853 210.483 546.675 210.999 546.675 211.604C546.675 212.066 546.782 212.493 546.995 212.885C547.244 213.24 547.565 213.561 547.956 213.845C548.561 214.237 549.38 214.593 550.411 214.913C551.443 215.233 552.671 215.536 554.094 215.82C555.945 216.212 557.582 216.674 559.005 217.208C560.464 217.706 561.674 218.329 562.635 219.076C563.453 219.681 564.058 220.411 564.45 221.265C564.877 222.119 565.09 223.097 565.09 224.2C565.09 225.944 564.556 227.474 563.489 228.791C562.457 230.072 561.069 231.068 559.325 231.78C557.582 232.492 555.625 232.847 553.454 232.847ZM578.618 232.314V196.498H584.116V232.314H578.618ZM571.519 209.629V204.291H592.336V209.629H571.519ZM615.255 232.847C612.053 232.847 609.206 232.243 606.715 231.033C604.224 229.787 602.267 228.097 600.844 225.962C599.456 223.827 598.762 221.372 598.762 218.596C598.762 216.319 599.171 214.272 599.99 212.458C600.808 210.643 601.929 209.077 603.352 207.76C604.811 206.444 606.519 205.43 608.476 204.718C610.434 204.006 612.533 203.65 614.775 203.65C616.803 203.65 618.689 203.989 620.433 204.665C622.212 205.341 623.76 206.284 625.077 207.494C626.393 208.703 627.407 210.145 628.119 211.817C628.866 213.454 629.222 215.269 629.187 217.262L629.133 219.824H603.246L602.018 215.447H624.383L623.582 216.141V214.86C623.44 213.685 622.942 212.636 622.088 211.71C621.234 210.785 620.166 210.056 618.885 209.522C617.604 208.988 616.234 208.721 614.775 208.721C612.64 208.721 610.772 209.059 609.17 209.735C607.605 210.412 606.377 211.461 605.487 212.885C604.633 214.272 604.206 216.052 604.206 218.222C604.206 220.179 604.705 221.87 605.701 223.293C606.697 224.716 608.085 225.82 609.864 226.602C611.644 227.385 613.69 227.777 616.003 227.777C617.995 227.777 619.721 227.492 621.18 226.923C622.639 226.353 624.027 225.57 625.344 224.574L627.959 228.577C627.034 229.36 625.877 230.09 624.489 230.766C623.102 231.406 621.607 231.922 620.006 232.314C618.44 232.67 616.857 232.847 615.255 232.847ZM638.988 232.314V204.291H644.539V211.123L643.098 211.337C643.383 210.483 643.881 209.611 644.593 208.721C645.305 207.832 646.194 207.031 647.262 206.319C648.329 205.572 649.503 204.967 650.785 204.504C652.101 204.042 653.507 203.811 655.001 203.811C656.745 203.811 658.311 204.095 659.698 204.665C661.086 205.234 662.207 206.106 663.061 207.28C663.951 208.454 664.538 209.913 664.823 211.657L663.542 211.337L663.915 210.429C664.342 209.682 664.929 208.935 665.677 208.187C666.459 207.405 667.367 206.693 668.399 206.052C669.466 205.376 670.605 204.843 671.815 204.451C673.025 204.024 674.27 203.811 675.551 203.811C678.042 203.811 680.053 204.291 681.583 205.252C683.113 206.213 684.234 207.583 684.946 209.362C685.657 211.141 686.013 213.258 686.013 215.714V232.314H680.462V216.247C680.462 214.646 680.231 213.312 679.768 212.244C679.341 211.141 678.665 210.305 677.74 209.735C676.815 209.166 675.605 208.881 674.11 208.881C672.865 208.881 671.69 209.095 670.587 209.522C669.52 209.913 668.577 210.483 667.758 211.23C666.94 211.942 666.299 212.778 665.837 213.739C665.41 214.699 665.196 215.731 665.196 216.834V232.314H659.645V216.141C659.645 214.646 659.396 213.365 658.898 212.297C658.4 211.194 657.652 210.358 656.656 209.789C655.66 209.184 654.396 208.881 652.866 208.881C651.656 208.881 650.553 209.095 649.557 209.522C648.561 209.949 647.671 210.518 646.888 211.23C646.141 211.942 645.554 212.742 645.127 213.632C644.735 214.486 644.539 215.376 644.539 216.301V232.314H638.988Z" fill="#305EFF"/>
</svg>
